<?xml version="1.0" encoding="UTF-8"?>
<svg xmlns="http://www.w3.org/2000/svg" xmlnsXlink="http://www.w3.org/1999/xlink" contentScriptType="text/ecmascript" width="75pt" zoomAndPan="magnify" contentStyleType="text/css" viewBox="0 0 75 30.000001" height="30.000001pt" preserveAspectRatio="xMidYMid meet" version="1.2">
    <defs>
        <g />
        <clipPath xmlId="clip1" id="clip1">
            <path d="M 1.210938 0 L 73.789062 0 L 73.789062 29.03125 L 1.210938 29.03125 Z M 1.210938 0 " />
        </clipPath>
        <clipPath xmlId="clip2" id="clip2">
            <path d="M 9 9.929688 L 66.285156 9.929688 L 66.285156 21.542969 L 9 21.542969 Z M 9 9.929688 " />
        </clipPath>
    </defs>
    <g xmlId="surface1" id="surface1">
        <g clip-rule="nonzero" clip-path="url(#clip1)">
            <path style=" stroke:none;fill-rule:nonzero;fill:rgb(100%,100%,100%);fill-opacity:1;" d="M 1.210938 0 L 73.789062 0 L 73.789062 36.289062 L 1.210938 36.289062 Z M 1.210938 0 " />
            <path style=" stroke:none;fill-rule:nonzero;fill:rgb(100%,100%,100%);fill-opacity:1;" d="M 1.210938 0 L 73.789062 0 L 73.789062 29.03125 L 1.210938 29.03125 Z M 1.210938 0 " />
            <path style=" stroke:none;fill-rule:nonzero;fill:rgb(29.40979%,21.958923%,41.178894%);fill-opacity:1;" d="M 1.210938 0 L 73.789062 0 L 73.789062 29.03125 L 1.210938 29.03125 Z M 1.210938 0 " />
        </g>
        <g style="fill:rgb(100%,100%,100%);fill-opacity:1;">
            <g transform="translate(14.748907, 18.394536)">
                <path style="stroke:none;" d="M 6.277344 -2.476562 C 6.277344 -2.476562 6.289062 -2.46875 6.277344 -2.488281 C 6.207031 -2.714844 5.753906 -2.097656 5.699219 -2.035156 C 5.433594 -1.714844 5.164062 -1.382812 4.882812 -1.074219 C 4.769531 -0.949219 4.367188 -0.390625 4.171875 -0.433594 C 4.078125 -0.453125 4.152344 -0.949219 4.152344 -0.949219 C 4.128906 -0.929688 4.121094 -0.910156 4.109375 -0.886719 C 4.191406 -1.28125 4.429688 -1.746094 4.59375 -2.136719 C 4.769531 -2.582031 5.027344 -3.160156 4.894531 -3.65625 C 4.738281 -4.222656 4.152344 -3.933594 3.871094 -3.667969 C 3.769531 -3.5625 2.914062 -2.449219 2.921875 -2.375 L 3.128906 -2.652344 C 2.964844 -2.394531 2.808594 -2.148438 2.683594 -1.890625 C 2.789062 -2.25 2.890625 -2.621094 3.015625 -2.984375 C 3.109375 -3.230469 3.261719 -3.492188 3.335938 -3.75 C 3.417969 -4.078125 3.128906 -4.535156 2.757812 -4.480469 C 2.488281 -4.449219 2.261719 -4.140625 2.128906 -3.925781 C 1.960938 -3.65625 1.765625 -3.40625 1.601562 -3.148438 C 1.40625 -2.828125 1.238281 -2.476562 1.074219 -2.148438 C 0.929688 -1.878906 0.855469 -1.570312 0.703125 -1.320312 C 0.722656 -1.433594 0.679688 -1.519531 0.679688 -1.621094 C 0.679688 -1.714844 0.722656 -1.828125 0.742188 -1.921875 C 0.773438 -2.066406 0.855469 -2.1875 0.886719 -2.332031 C 0.910156 -2.40625 0.886719 -2.4375 0.910156 -2.507812 C 0.917969 -2.5625 0.972656 -2.621094 1 -2.664062 C 1.074219 -2.769531 1.167969 -2.859375 1.230469 -2.964844 C 1.238281 -2.984375 1.261719 -3.003906 1.261719 -3.027344 C 1.300781 -3.171875 1.199219 -3.222656 1.144531 -3.292969 C 1.09375 -3.355469 1.042969 -3.492188 0.960938 -3.5625 C 0.898438 -3.613281 0.796875 -3.675781 0.722656 -3.644531 C 0.628906 -3.605469 0.671875 -3.550781 0.640625 -3.5 C 0.597656 -3.398438 0.515625 -3.316406 0.464844 -3.222656 C 0.382812 -3.046875 0.308594 -2.871094 0.257812 -2.695312 C 0.132812 -2.332031 -0.0117188 -1.960938 0.0117188 -1.578125 C 0.0195312 -1.289062 -0.0625 -1.054688 0.15625 -0.796875 C 0.257812 -0.671875 0.660156 -0.402344 0.765625 -0.589844 C 0.773438 -0.609375 0.785156 -0.691406 0.785156 -0.722656 C 0.816406 -0.824219 0.886719 -0.917969 0.929688 -1.023438 C 1.03125 -1.230469 1.125 -1.445312 1.238281 -1.664062 C 1.527344 -2.210938 1.746094 -2.738281 2.085938 -3.261719 C 2.1875 -3.417969 2.3125 -3.574219 2.4375 -3.71875 C 2.46875 -3.75 2.621094 -3.964844 2.644531 -3.957031 C 2.808594 -3.945312 2.476562 -3.316406 2.449219 -3.203125 C 2.3125 -2.851562 2.074219 -2.488281 2.035156 -2.117188 C 2.023438 -1.992188 2.054688 -1.953125 2.023438 -1.839844 C 1.992188 -1.714844 1.941406 -1.578125 1.953125 -1.445312 C 1.972656 -1.320312 2.023438 -1.207031 2.117188 -1.125 C 2.449219 -0.804688 2.582031 -1.175781 2.726562 -1.425781 C 2.902344 -1.714844 3.066406 -2.128906 3.285156 -2.34375 C 3.625 -2.675781 3.800781 -3.117188 4.140625 -3.4375 C 4.089844 -3.324219 3.800781 -2.621094 3.8125 -2.613281 C 3.832031 -2.632812 3.839844 -2.652344 3.851562 -2.675781 C 3.8125 -2.5625 3.769531 -2.457031 3.738281 -2.355469 C 3.71875 -2.363281 3.757812 -2.449219 3.75 -2.449219 C 3.6875 -2.457031 3.5 -1.878906 3.492188 -1.839844 C 3.417969 -1.632812 3.386719 -1.433594 3.386719 -1.21875 C 3.386719 -1.023438 3.386719 -0.824219 3.417969 -0.621094 C 3.4375 -0.496094 3.46875 -0.363281 3.53125 -0.246094 C 3.550781 -0.195312 3.695312 -0.0507812 3.695312 -0.0742188 C 3.707031 -0.0507812 3.707031 -0.03125 3.726562 -0.0195312 L 3.71875 -0.03125 C 3.695312 0.0507812 4.128906 0.195312 4.203125 0.1875 C 4.566406 0.175781 4.925781 -0.308594 5.121094 -0.566406 C 5.410156 -0.917969 5.667969 -1.300781 5.925781 -1.671875 C 6.0625 -1.871094 6.339844 -2.210938 6.277344 -2.476562 Z M 2.570312 -3.160156 L 2.582031 -3.160156 C 2.570312 -3.148438 2.5625 -3.128906 2.5625 -3.128906 C 2.4375 -2.871094 2.375 -2.570312 2.273438 -2.292969 C 2.1875 -2.085938 2.085938 -1.839844 2.066406 -1.609375 C 2.066406 -1.847656 2.136719 -2.128906 2.210938 -2.332031 C 2.292969 -2.582031 2.417969 -2.820312 2.519531 -3.058594 C 2.5625 -3.140625 2.808594 -3.78125 2.769531 -3.945312 C 2.828125 -3.800781 2.644531 -3.316406 2.582031 -3.160156 L 2.582031 -3.171875 Z M 2.570312 -3.160156 " />
            </g>
        </g>
        <g style="fill:rgb(100%,100%,100%);fill-opacity:1;">
            <g transform="translate(20.273742, 18.394536)">
                <path style="stroke:none;" d="M 2.707031 -2.539062 C 2.683594 -2.675781 2.539062 -2.632812 2.46875 -2.582031 C 2.375 -2.519531 1.859375 -1.839844 1.898438 -1.785156 C 1.929688 -1.785156 1.953125 -1.785156 1.972656 -1.808594 C 1.828125 -1.632812 1.558594 -1.433594 1.363281 -1.28125 C 1.25 -1.1875 0.972656 -0.929688 0.804688 -1.011719 C 0.453125 -1.1875 1.167969 -2.425781 1.136719 -2.4375 C 1.105469 -2.449219 0.847656 -1.871094 0.796875 -1.734375 C 0.917969 -2.097656 1.085938 -2.457031 1.28125 -2.777344 C 1.269531 -2.746094 1.238281 -2.695312 1.261719 -2.695312 C 1.28125 -2.683594 1.433594 -2.902344 1.40625 -2.921875 C 1.394531 -2.921875 1.375 -2.921875 1.363281 -2.914062 C 1.394531 -2.941406 1.445312 -2.953125 1.445312 -3.015625 C 1.445312 -3.117188 1.207031 -3.222656 1.125 -3.253906 C 0.929688 -3.335938 0.734375 -3.355469 0.578125 -3.253906 C 0.371094 -3.128906 0.332031 -2.882812 0.246094 -2.664062 C 0.226562 -2.601562 0.03125 -1.871094 0.0742188 -1.859375 C 0.09375 -1.871094 0.09375 -1.878906 0.101562 -1.898438 L 0.0742188 -1.714844 C 0.0625 -1.714844 0.0820312 -1.765625 0.0625 -1.765625 C -0.0195312 -1.765625 0 -1.394531 0.0117188 -1.34375 C 0.0507812 -1.15625 0.195312 -1.023438 0.308594 -0.867188 C 0.371094 -0.773438 0.433594 -0.679688 0.527344 -0.621094 C 0.652344 -0.527344 0.566406 -0.621094 0.652344 -0.578125 L 0.628906 -0.578125 C 0.621094 -0.515625 1.011719 -0.414062 1.09375 -0.421875 C 1.457031 -0.507812 1.714844 -0.949219 1.921875 -1.230469 C 2.117188 -1.476562 2.28125 -1.722656 2.457031 -1.984375 C 2.5625 -2.117188 2.746094 -2.34375 2.707031 -2.539062 Z M 0.898438 -3.839844 C 0.917969 -3.8125 0.886719 -3.769531 0.960938 -3.726562 C 1.03125 -3.695312 1.074219 -3.738281 1.136719 -3.757812 C 1.261719 -3.8125 1.351562 -3.945312 1.445312 -4.027344 C 1.476562 -4.046875 1.414062 -4.039062 1.414062 -4.039062 C 1.550781 -4.160156 1.433594 -4.015625 1.558594 -4.089844 C 1.683594 -4.171875 1.703125 -4.304688 1.808594 -4.417969 C 1.683594 -4.367188 1.589844 -4.296875 1.507812 -4.191406 C 1.40625 -4.058594 1.332031 -3.996094 1.21875 -3.925781 C 1.34375 -4.015625 1.40625 -4.109375 1.507812 -4.273438 C 1.539062 -4.304688 1.570312 -4.328125 1.609375 -4.347656 C 1.578125 -4.378906 1.578125 -4.410156 1.621094 -4.441406 C 1.652344 -4.492188 1.714844 -4.511719 1.746094 -4.566406 C 1.796875 -4.636719 1.785156 -4.730469 1.847656 -4.800781 C 1.898438 -4.84375 1.972656 -4.875 2.015625 -4.914062 C 2.105469 -5 2.210938 -5.152344 2.167969 -5.289062 C 2.128906 -5.410156 2.023438 -5.566406 1.910156 -5.636719 C 1.777344 -5.710938 1.589844 -5.742188 1.445312 -5.679688 C 1.414062 -5.667969 1.289062 -5.636719 1.332031 -5.597656 C 1.34375 -5.578125 1.351562 -5.578125 1.375 -5.578125 C 1.28125 -5.503906 1.125 -5.378906 1.34375 -5.296875 C 1.320312 -5.277344 1.34375 -5.183594 1.34375 -5.171875 C 1.332031 -5.101562 1.1875 -4.71875 1.09375 -4.535156 L 1.21875 -4.71875 C 1.144531 -4.566406 1.0625 -4.417969 0.972656 -4.296875 C 1.03125 -4.429688 0.910156 -4.273438 0.910156 -4.246094 C 0.796875 -4.296875 0.824219 -3.976562 0.835938 -3.945312 C 0.835938 -3.933594 0.898438 -3.839844 0.898438 -3.839844 Z M 0.703125 -1.382812 L 0.703125 -1.375 L 0.679688 -1.3125 L 0.703125 -1.394531 C 0.710938 -1.40625 0.710938 -1.40625 0.703125 -1.382812 Z M 1.042969 -4.449219 C 1.042969 -4.449219 1.0625 -4.472656 1.085938 -4.511719 Z M 0.941406 -4.253906 C 0.941406 -4.246094 0.941406 -4.246094 0.929688 -4.234375 C 0.929688 -4.234375 0.929688 -4.246094 0.917969 -4.246094 C 0.929688 -4.246094 0.929688 -4.246094 0.941406 -4.253906 Z M 0.941406 -4.253906 " />
            </g>
        </g>
        <g style="fill:rgb(100%,100%,100%);fill-opacity:1;">
            <g transform="translate(22.225505, 18.394536)">
                <path style="stroke:none;" d="M 4.128906 -2.632812 C 3.984375 -2.476562 3.894531 -2.21875 3.78125 -2.035156 C 3.605469 -1.734375 3.429688 -1.445312 3.242188 -1.15625 C 2.890625 -0.597656 2.539062 -0.03125 2.117188 0.476562 C 1.941406 0.691406 1.570312 1.21875 1.21875 1.175781 C 0.960938 1.136719 0.960938 0.691406 0.960938 0.496094 C 0.960938 0.332031 0.972656 0.164062 0.992188 0.0117188 C 1 -0.0820312 1.085938 -0.390625 1.03125 -0.476562 L 0.949219 -0.164062 C 0.960938 -0.289062 0.980469 -0.421875 1.011719 -0.546875 C 1 -0.566406 1.09375 -0.855469 1.117188 -0.949219 C 1.167969 -1.15625 1.21875 -1.363281 1.28125 -1.570312 C 1.332031 -1.777344 1.382812 -1.972656 1.445312 -2.167969 C 1.496094 -2.355469 1.570312 -2.449219 1.683594 -2.59375 C 2.148438 -3.171875 2.570312 -3.800781 2.964844 -4.429688 C 3.109375 -4.667969 3.203125 -4.875 3.375 -5.070312 C 3.636719 -5.339844 3.8125 -5.742188 3.976562 -6.070312 C 4.253906 -6.609375 4.625 -7.351562 4.566406 -7.984375 L 4.566406 -8.035156 L 4.554688 -8.042969 C 4.492188 -8.449219 4.121094 -8.921875 3.667969 -8.777344 C 3.429688 -8.707031 3.253906 -8.457031 3.109375 -8.28125 L 2.871094 -7.960938 C 2.820312 -7.898438 2.746094 -7.746094 2.695312 -7.664062 L 2.707031 -7.671875 L 2.375 -7.105469 L 2.457031 -7.28125 C 2.40625 -7.289062 2.179688 -6.847656 2.148438 -6.796875 C 2.035156 -6.597656 1.929688 -6.402344 1.839844 -6.207031 C 1.632812 -5.792969 1.425781 -5.371094 1.289062 -4.925781 C 1.144531 -4.480469 0.980469 -4.046875 0.824219 -3.605469 C 0.742188 -3.367188 0.660156 -3.117188 0.589844 -2.882812 C 0.527344 -2.683594 0.382812 -2.363281 0.414062 -2.160156 L 0.445312 -2.160156 C 0.414062 -2.085938 0.390625 -2.015625 0.371094 -1.941406 C 0.382812 -2.003906 0.382812 -2.074219 0.390625 -2.097656 C 0.339844 -2.023438 0.351562 -1.777344 0.339844 -1.753906 C 0.207031 -1.199219 0.0507812 -0.640625 0.0117188 -0.0625 C -0.0195312 0.484375 -0.0195312 1.207031 0.414062 1.609375 C 0.898438 2.054688 1.457031 1.753906 1.859375 1.375 C 2.332031 0.910156 2.738281 0.363281 3.109375 -0.175781 C 3.449219 -0.671875 3.71875 -1.199219 4.027344 -1.695312 C 4.152344 -1.898438 4.285156 -2.105469 4.347656 -2.332031 C 4.390625 -2.5 4.367188 -2.882812 4.128906 -2.632812 Z M 2.839844 -6.332031 C 3.046875 -6.824219 3.253906 -7.332031 3.542969 -7.796875 C 3.613281 -7.910156 4.078125 -8.53125 4.058594 -7.984375 L 4.058594 -7.972656 C 4.039062 -7.394531 3.667969 -6.785156 3.417969 -6.289062 L 2.984375 -5.484375 C 2.839844 -5.234375 2.59375 -4.925781 2.507812 -4.65625 C 2.570312 -4.824219 2.757812 -5.058594 2.851562 -5.214844 C 3.003906 -5.472656 3.140625 -5.730469 3.285156 -5.988281 C 3.519531 -6.445312 3.78125 -6.917969 3.957031 -7.414062 C 3.492188 -6.03125 2.621094 -4.738281 1.859375 -3.511719 C 2.160156 -4.417969 2.457031 -5.410156 2.839844 -6.332031 Z M 2.507812 -7.054688 C 2.613281 -7.25 2.796875 -7.414062 2.902344 -7.601562 C 2.683594 -7.167969 2.417969 -6.773438 2.1875 -6.363281 C 2.1875 -6.371094 2.1875 -6.390625 2.199219 -6.402344 C 2.292969 -6.628906 2.394531 -6.835938 2.507812 -7.054688 Z M 0.558594 -1.714844 C 0.546875 -1.695312 0.546875 -1.683594 0.546875 -1.683594 C 0.421875 -1.394531 0.414062 -1 0.351562 -0.691406 C 0.339844 -0.621094 0.320312 -0.558594 0.320312 -0.484375 L 0.320312 -0.515625 L 0.289062 -0.1875 C 0.308594 -0.558594 0.351562 -0.941406 0.421875 -1.300781 L 0.421875 -1.289062 C 0.453125 -1.527344 0.507812 -1.746094 0.546875 -1.746094 C 0.566406 -1.753906 0.566406 -1.722656 0.558594 -1.714844 Z M 0.558594 -1.714844 " />
            </g>
        </g>
        <g style="fill:rgb(100%,100%,100%);fill-opacity:1;">
            <g transform="translate(25.881191, 18.394536)">
                <path style="stroke:none;" d="M 5.257812 -2.488281 C 5.246094 -2.714844 5.058594 -2.519531 5 -2.4375 C 4.863281 -2.242188 4.738281 -2.035156 4.617188 -1.839844 C 4.335938 -1.414062 4.058594 -0.992188 3.738281 -0.589844 C 2.675781 0.722656 3.417969 -1.609375 3.335938 -1.589844 C 3.292969 -1.578125 3.261719 -1.425781 3.253906 -1.394531 C 3.335938 -1.765625 3.492188 -2.210938 3.6875 -2.570312 C 3.800781 -2.796875 3.933594 -2.984375 3.726562 -3.230469 C 3.347656 -3.695312 2.902344 -3.273438 2.652344 -2.953125 C 2.550781 -3.347656 2.34375 -3.925781 1.839844 -3.925781 C 1.609375 -3.925781 1.476562 -3.8125 1.320312 -3.675781 C 1.230469 -3.613281 1.15625 -3.605469 1.074219 -3.53125 C 0.941406 -3.4375 0.847656 -3.292969 0.753906 -3.171875 C 0.402344 -2.652344 0.15625 -2.003906 0.0429688 -1.40625 C -0.0117188 -1.117188 -0.03125 -0.796875 0.0507812 -0.507812 C 0.101562 -0.339844 0.289062 0.03125 0.527344 0 C 0.535156 0 0.515625 -0.0117188 0.484375 -0.03125 C 0.628906 0.0117188 0.796875 -0.0117188 0.917969 -0.09375 C 0.929688 -0.0742188 0.804688 -0.0195312 0.804688 -0.0195312 C 0.917969 0.15625 1.765625 -0.867188 1.828125 -0.960938 C 1.960938 -1.144531 2.054688 -1.34375 2.179688 -1.539062 C 2.273438 -1.683594 2.417969 -1.871094 2.519531 -2.023438 C 2.507812 -1.953125 2.507812 -1.859375 2.507812 -1.859375 C 2.324219 -1.269531 2.148438 -0.628906 2.394531 -0.0195312 C 2.507812 0.289062 2.789062 0.578125 3.140625 0.515625 C 3.449219 0.464844 3.707031 0.164062 3.894531 -0.0742188 C 4.121094 -0.339844 4.316406 -0.640625 4.511719 -0.949219 C 4.679688 -1.230469 4.832031 -1.507812 4.96875 -1.816406 C 5.050781 -2.015625 5.277344 -2.25 5.257812 -2.488281 Z M 2.292969 -2.417969 C 2.242188 -2.34375 2.1875 -2.273438 2.148438 -2.199219 L 1.878906 -1.816406 C 1.703125 -1.558594 1.519531 -1.3125 1.320312 -1.074219 C 1.269531 -1 1.023438 -0.679688 0.917969 -0.710938 C 0.765625 -0.765625 0.929688 -1.300781 0.949219 -1.382812 C 0.980469 -1.527344 1.527344 -3.117188 1.671875 -3.148438 C 1.488281 -3.160156 0.886719 -1.289062 0.855469 -1.136719 C 0.941406 -1.640625 1.125 -2.136719 1.332031 -2.601562 C 1.445312 -2.839844 1.703125 -3.46875 2.042969 -3.46875 C 2.230469 -3.46875 2.273438 -3.085938 2.304688 -2.964844 C 2.292969 -2.984375 2.199219 -3.285156 2.1875 -3.273438 C 2.136719 -3.230469 2.34375 -2.664062 2.34375 -2.582031 C 2.34375 -2.5 2.34375 -2.5 2.292969 -2.417969 Z M 2.53125 -1.910156 C 2.53125 -1.910156 2.5625 -2.054688 2.570312 -2.085938 L 2.621094 -2.160156 Z M 2.375 -2.550781 L 2.375 -2.652344 C 2.40625 -2.613281 2.40625 -2.582031 2.375 -2.550781 Z M 2.375 -2.550781 " />
            </g>
        </g>
        <g style="fill:rgb(100%,100%,100%);fill-opacity:1;">
            <g transform="translate(30.383675, 18.394536)">
                <path style="stroke:none;" d="M 4.265625 -2.539062 L 4.265625 -2.550781 C 4.183594 -2.808594 3.75 -2.136719 3.695312 -2.074219 C 3.355469 -1.683594 2.964844 -1.238281 2.46875 -1.042969 C 2.34375 -0.980469 2.097656 -0.898438 2.035156 -1.042969 C 1.992188 -1.136719 2.035156 -1.351562 2.023438 -1.457031 C 2.003906 -1.589844 1.984375 -1.734375 1.921875 -1.859375 C 1.746094 -2.148438 1.550781 -1.953125 1.488281 -1.714844 C 1.433594 -1.476562 1.433594 -1.207031 1.488281 -0.980469 C 1.507812 -0.855469 1.609375 -0.734375 1.632812 -0.609375 C 1.652344 -0.507812 1.601562 -0.351562 1.578125 -0.246094 C 1.488281 0.21875 1.34375 0.660156 1.15625 1.09375 C 1.03125 1.40625 0.382812 2.839844 -0.0117188 2.105469 L -0.0195312 2.097656 L 0.0195312 2.128906 C -0.0742188 1.714844 0.0742188 1.207031 0.164062 0.804688 C 0.308594 0.21875 0.484375 -0.351562 0.679688 -0.917969 C 0.722656 -1.0625 0.773438 -1.207031 0.824219 -1.363281 C 0.886719 -1.519531 0.910156 -1.558594 1.011719 -1.671875 C 1.144531 -1.808594 1.269531 -1.953125 1.394531 -2.085938 C 1.785156 -2.539062 2.167969 -2.996094 2.53125 -3.460938 C 3.128906 -4.234375 3.675781 -5.101562 4.058594 -6 C 4.253906 -6.476562 4.554688 -7.890625 3.613281 -7.785156 C 3.140625 -7.734375 2.738281 -7.054688 2.488281 -6.703125 C 2.148438 -6.207031 1.847656 -5.667969 1.578125 -5.144531 C 1.085938 -4.191406 0.609375 -3.230469 0.320312 -2.210938 C 0.0117188 -1.125 -0.445312 -0.0742188 -0.507812 1.085938 C -0.535156 1.558594 -0.535156 2.261719 -0.113281 2.582031 C 0.371094 2.953125 0.878906 2.652344 1.167969 2.210938 C 1.496094 1.703125 1.632812 1.03125 1.796875 0.453125 C 1.839844 0.308594 1.871094 0.164062 1.898438 0.0195312 C 1.910156 -0.0625 1.921875 -0.402344 1.984375 -0.453125 C 2.035156 -0.507812 2.261719 -0.496094 2.324219 -0.515625 C 2.851562 -0.660156 3.417969 -1.085938 3.695312 -1.558594 C 3.863281 -1.816406 4.359375 -2.179688 4.265625 -2.539062 Z M 1.464844 -3.027344 C 1.464844 -3.035156 1.476562 -3.046875 1.476562 -3.058594 L 1.476562 -3.046875 C 1.539062 -3.179688 1.550781 -3.222656 1.539062 -3.210938 C 1.898438 -4.070312 2.273438 -4.925781 2.707031 -5.742188 C 2.921875 -6.144531 3.128906 -6.558594 3.40625 -6.917969 C 3.480469 -7.011719 3.605469 -7.21875 3.738281 -7.175781 C 4.128906 -7.0625 3.140625 -5.089844 2.996094 -4.855469 C 2.5 -4.015625 1.898438 -3.230469 1.25 -2.5 Z M 0.101562 0.402344 C 0.144531 0.257812 0.1875 0.113281 0.238281 -0.0195312 C 0.164062 0.207031 0.101562 0.453125 0.0625 0.691406 C 0.0195312 0.886719 -0.132812 1.363281 -0.132812 1.722656 C -0.1875 1.28125 -0.03125 0.796875 0.101562 0.402344 Z M 1.507812 -3.128906 L 1.539062 -3.210938 C 1.539062 -3.203125 1.519531 -3.160156 1.507812 -3.128906 Z M 1.507812 -3.128906 " />
            </g>
        </g>
        <g style="fill:rgb(100%,100%,100%);fill-opacity:1;">
            <g transform="translate(33.905111, 18.394536)">
                <path style="stroke:none;" d="M 4.234375 -2.507812 C 4.171875 -2.777344 3.925781 -2.417969 3.871094 -2.355469 L 3.304688 -1.589844 L 2.746094 -0.855469 L 2.449219 -0.476562 C 2.417969 -0.433594 2.1875 -0.144531 2.210938 -0.144531 C 2.230469 -0.164062 2.261719 -0.164062 2.292969 -0.195312 C 2.136719 -0.03125 1.570312 0.484375 1.464844 0.363281 C 1.382812 0.257812 1.609375 -0.175781 1.640625 -0.277344 C 1.753906 -0.578125 1.859375 -0.886719 1.984375 -1.175781 C 2.117188 -1.476562 2.273438 -1.777344 2.394531 -2.074219 C 2.519531 -2.394531 2.332031 -2.507812 2.035156 -2.582031 C 1.898438 -2.613281 1.734375 -2.613281 1.578125 -2.632812 C 1.578125 -2.621094 1.589844 -2.621094 1.589844 -2.621094 C 1.722656 -2.601562 1.921875 -2.59375 2.085938 -2.539062 C 1.839844 -2.613281 1.527344 -2.582031 1.332031 -2.632812 C 1.199219 -2.664062 1.117188 -2.664062 1.136719 -2.820312 C 1.15625 -3.027344 1.375 -3.242188 1.445312 -3.4375 C 1.445312 -3.429688 1.375 -3.242188 1.382812 -3.242188 C 1.433594 -3.222656 1.519531 -3.511719 1.519531 -3.550781 C 1.507812 -3.605469 1.382812 -3.757812 1.375 -3.695312 L 1.394531 -3.667969 C 0.898438 -4.007812 0.308594 -3.304688 0.414062 -2.796875 C 0.433594 -2.726562 0.476562 -2.683594 0.507812 -2.601562 C 0.527344 -2.539062 0.507812 -2.46875 0.566406 -2.386719 C 0.785156 -2.117188 1.175781 -2.105469 1.488281 -2.167969 C 1.433594 -2.097656 0.886719 -0.941406 0.917969 -0.929688 L 0.847656 -0.671875 C 0.835938 -0.679688 0.878906 -0.765625 0.855469 -0.765625 C 0.785156 -0.773438 0.640625 -0.175781 0.628906 -0.125 C 0.589844 0.125 0.597656 0.339844 0.703125 0.566406 C 0.765625 0.710938 0.835938 0.835938 0.972656 0.917969 C 1.09375 1 1.25 1.042969 1.394531 1.011719 C 1.445312 0.992188 1.640625 0.855469 1.589844 0.867188 L 1.664062 0.835938 C 1.652344 0.847656 1.640625 0.855469 1.640625 0.867188 C 1.671875 0.878906 2.148438 0.496094 2.210938 0.453125 C 2.539062 0.175781 2.808594 -0.164062 3.058594 -0.507812 C 3.304688 -0.855469 3.5625 -1.207031 3.800781 -1.558594 C 3.914062 -1.722656 4.015625 -1.890625 4.101562 -2.066406 C 4.160156 -2.1875 4.265625 -2.363281 4.234375 -2.507812 Z M 1.144531 -1.269531 C 1.21875 -1.457031 1.300781 -1.632812 1.394531 -1.808594 C 1.414062 -1.839844 1.558594 -2.210938 1.632812 -2.230469 C 1.578125 -2.199219 1.363281 -1.695312 1.3125 -1.601562 L 1.117188 -1.144531 C 1.011719 -0.898438 0.898438 -0.640625 0.824219 -0.371094 C 0.898438 -0.679688 1.023438 -0.980469 1.144531 -1.269531 Z M 0.898438 0.710938 C 0.960938 0.796875 1.042969 0.878906 1.15625 0.917969 C 1.0625 0.886719 0.980469 0.835938 0.917969 0.773438 C 0.929688 0.773438 0.929688 0.785156 0.929688 0.796875 C 0.867188 0.710938 0.785156 0.535156 0.773438 0.507812 C 0.742188 0.382812 0.734375 0.238281 0.742188 0.113281 C 0.742188 0.0117188 0.753906 -0.0742188 0.773438 -0.164062 L 0.773438 -0.15625 C 0.753906 -0.0195312 0.742188 0.113281 0.753906 0.257812 L 0.753906 0.308594 C 0.742188 0.300781 0.742188 0.289062 0.742188 0.289062 C 0.742188 0.289062 0.742188 0.300781 0.753906 0.320312 L 0.753906 0.332031 L 0.796875 0.546875 L 0.765625 0.414062 C 0.785156 0.476562 0.835938 0.589844 0.886719 0.703125 L 0.878906 0.691406 C 0.878906 0.703125 0.886719 0.710938 0.898438 0.722656 Z M 1.1875 -2.695312 C 1.238281 -2.652344 1.332031 -2.644531 1.425781 -2.632812 C 1.34375 -2.644531 1.269531 -2.664062 1.21875 -2.707031 C 1.21875 -2.707031 1.15625 -2.757812 1.144531 -2.777344 C 1.144531 -2.757812 1.167969 -2.707031 1.1875 -2.695312 Z M 2.273438 -1.890625 L 2.054688 -1.433594 L 2.273438 -1.898438 Z M 0.785156 -0.195312 C 0.785156 -0.1875 0.773438 -0.175781 0.773438 -0.164062 L 0.773438 -0.175781 C 0.773438 -0.1875 0.785156 -0.1875 0.785156 -0.195312 Z M 2.28125 -1.921875 L 2.28125 -1.910156 L 2.273438 -1.910156 Z M 2.28125 -1.921875 L 2.28125 -1.910156 L 2.273438 -1.910156 Z M 0.796875 -0.332031 C 0.796875 -0.339844 0.804688 -0.351562 0.804688 -0.371094 C 0.804688 -0.351562 0.796875 -0.339844 0.796875 -0.332031 Z M 0.835938 0.621094 C 0.835938 0.621094 0.847656 0.628906 0.847656 0.640625 C 0.847656 0.628906 0.835938 0.628906 0.835938 0.621094 Z M 1.15625 -2.796875 C 1.144531 -2.796875 1.144531 -2.789062 1.144531 -2.789062 Z M 1.15625 -2.796875 " />
            </g>
        </g>
        <g style="fill:rgb(100%,100%,100%);fill-opacity:1;">
            <g transform="translate(37.385242, 18.394536)">
                <path style="stroke:none;" d="M 3.957031 -2.550781 C 3.957031 -2.539062 3.957031 -2.539062 3.945312 -2.550781 L 3.945312 -2.5625 C 3.78125 -2.839844 3.5625 -2.457031 3.46875 -2.324219 C 3.292969 -2.085938 3.128906 -1.859375 2.941406 -1.640625 C 2.789062 -1.457031 2.621094 -1.269531 2.5 -1.074219 C 2.5 -1.054688 2.476562 -1 2.476562 -1 C 2.4375 -0.941406 2.375 -0.886719 2.324219 -0.824219 C 2.230469 -0.734375 2.136719 -0.628906 2.035156 -0.535156 C 1.878906 -0.390625 1.011719 0.421875 0.898438 -0.101562 C 0.835938 -0.363281 0.917969 -0.679688 0.972656 -0.929688 C 1 -1.0625 1.03125 -1.1875 1.054688 -1.320312 C 1.074219 -1.425781 1.042969 -1.527344 1.09375 -1.632812 C 1.125 -1.695312 1.136719 -1.683594 1.207031 -1.703125 L 1.382812 -1.765625 C 1.496094 -1.808594 1.609375 -1.847656 1.714844 -1.910156 C 1.871094 -2.003906 2.015625 -2.117188 2.148438 -2.230469 C 2.46875 -2.5 2.808594 -2.820312 2.941406 -3.222656 C 3.015625 -3.449219 3.027344 -3.695312 2.882812 -3.894531 C 2.746094 -4.070312 2.519531 -4.160156 2.3125 -4.203125 C 1.753906 -4.304688 1.332031 -3.984375 1.011719 -3.5625 C 0.621094 -3.078125 0.339844 -2.476562 0.207031 -1.871094 C 0.132812 -1.570312 0.09375 -1.269531 0.0429688 -0.960938 C -0.0117188 -0.652344 -0.0429688 -0.363281 0.125 -0.0742188 C 0.113281 -0.175781 0.09375 -0.269531 0.09375 -0.363281 C 0.09375 -0.414062 0.113281 -0.464844 0.113281 -0.507812 C 0.113281 -0.527344 0.09375 -0.589844 0.09375 -0.621094 C 0.09375 -0.710938 0.113281 -0.785156 0.132812 -0.878906 C 0.144531 -0.972656 0.132812 -1.0625 0.144531 -1.15625 C 0.15625 -1.261719 0.195312 -1.34375 0.238281 -1.433594 C 0.269531 -1.519531 0.277344 -1.589844 0.308594 -1.671875 C 0.339844 -1.746094 0.363281 -1.828125 0.390625 -1.910156 C 0.402344 -1.960938 0.453125 -2.023438 0.484375 -2.085938 C 0.453125 -1.992188 0.390625 -1.910156 0.371094 -1.828125 C 0.339844 -1.703125 0.363281 -1.570312 0.351562 -1.445312 C 0.332031 -1.3125 0.289062 -1.175781 0.269531 -1.03125 C 0.246094 -0.898438 0.1875 -0.773438 0.164062 -0.640625 C 0.144531 -0.515625 0.101562 -0.421875 0.113281 -0.300781 C 0.113281 -0.226562 0.125 -0.15625 0.132812 -0.09375 C 0.144531 -0.0117188 0.195312 0.0429688 0.246094 0.101562 C 0.421875 0.308594 0.660156 0.476562 0.929688 0.546875 C 1.117188 0.597656 1.28125 0.589844 1.457031 0.496094 C 1.703125 0.363281 1.921875 0.15625 2.105469 -0.0429688 C 2.28125 -0.238281 2.417969 -0.453125 2.570312 -0.660156 C 2.714844 -0.847656 2.890625 -1.023438 3.035156 -1.207031 L 3.59375 -1.929688 L 3.914062 -2.355469 C 3.964844 -2.417969 3.996094 -2.46875 3.957031 -2.550781 Z M 1.394531 -2.4375 C 1.40625 -2.457031 1.40625 -2.46875 1.40625 -2.46875 C 1.558594 -2.796875 1.671875 -3.148438 1.890625 -3.46875 L 2.074219 -3.71875 C 2.117188 -3.769531 2.1875 -3.863281 2.261719 -3.882812 C 2.417969 -3.914062 2.457031 -3.644531 2.449219 -3.542969 L 2.40625 -3.324219 C 2.394531 -3.261719 2.417969 -3.222656 2.40625 -3.171875 C 2.386719 -3.109375 2.332031 -3.078125 2.304688 -3.027344 L 2.128906 -2.796875 C 1.890625 -2.519531 1.589844 -2.28125 1.261719 -2.105469 C 1.3125 -2.21875 1.34375 -2.332031 1.394531 -2.4375 Z M 1.394531 -2.4375 " />
            </g>
        </g>
        <g style="fill:rgb(100%,100%,100%);fill-opacity:1;">
            <g transform="translate(40.596874, 18.394536)">
                <path style="stroke:none;" d="M 3.738281 -1.910156 C 3.832031 -2.042969 4.203125 -2.4375 4.046875 -2.613281 C 3.839844 -2.820312 3.304688 -1.960938 3.222656 -1.859375 C 3.058594 -1.640625 2.882812 -1.433594 2.714844 -1.230469 C 2.621094 -1.117188 2.53125 -1 2.425781 -0.898438 C 2.40625 -0.878906 2.210938 -0.628906 2.230469 -0.628906 C 2.261719 -0.640625 2.292969 -0.660156 2.324219 -0.679688 C 2.148438 -0.496094 1.910156 -0.332031 1.695312 -0.164062 C 1.550781 -0.0625 1.269531 0.164062 1.09375 0.0429688 C 1.023438 0 1 -0.101562 0.980469 -0.175781 C 0.910156 -0.496094 0.960938 -0.878906 1.011719 -1.207031 C 1.125 -1.898438 1.351562 -2.582031 1.632812 -3.230469 C 1.765625 -3.53125 1.898438 -3.832031 2.136719 -4.058594 C 2.160156 -4.078125 2.199219 -4.039062 2.210938 -4.046875 C 2.230469 -4.058594 2.148438 -4.089844 2.136719 -4.078125 C 2.023438 -4.015625 1.953125 -3.894531 1.890625 -3.78125 C 1.703125 -3.480469 1.558594 -3.148438 1.433594 -2.820312 C 1.527344 -3.078125 1.632812 -3.335938 1.753906 -3.59375 C 1.828125 -3.726562 1.910156 -3.945312 2.042969 -4.046875 C 2.394531 -4.328125 2.261719 -3.40625 2.21875 -3.273438 C 2.21875 -3.285156 2.261719 -3.511719 2.25 -3.511719 C 2.230469 -3.511719 2.085938 -2.984375 2.085938 -2.984375 L 2.136719 -3.027344 C 2.085938 -2.941406 1.984375 -2.882812 2.117188 -2.789062 C 2.28125 -2.675781 2.601562 -2.871094 2.675781 -3.015625 C 2.746094 -3.171875 2.769531 -3.375 2.777344 -3.53125 C 2.796875 -3.800781 2.726562 -3.957031 2.632812 -4.160156 C 2.53125 -4.378906 2.4375 -4.511719 2.160156 -4.554688 C 1.929688 -4.585938 1.722656 -4.492188 1.550781 -4.359375 C 1.289062 -4.171875 1.09375 -3.933594 0.929688 -3.667969 C 0.886719 -3.59375 0.515625 -2.839844 0.527344 -2.828125 L 0.566406 -2.882812 C 0.515625 -2.769531 0.484375 -2.652344 0.445312 -2.550781 C 0.433594 -2.550781 0.464844 -2.644531 0.453125 -2.644531 C 0.390625 -2.652344 0.207031 -2.085938 0.195312 -2.035156 C 0.125 -1.816406 0.0742188 -1.601562 0.0625 -1.375 C 0.0507812 -1.125 0.0117188 -0.878906 0 -0.621094 C 0 -0.484375 0 -0.339844 0.0195312 -0.207031 C 0.0195312 -0.164062 0.101562 0.0507812 0.101562 -0.0117188 L 0.15625 0.164062 C 0.144531 0.15625 0.101562 0.0507812 0.101562 0.0507812 C 0.0507812 0.113281 0.332031 0.515625 0.390625 0.578125 C 0.476562 0.671875 0.597656 0.710938 0.722656 0.734375 C 1.136719 0.785156 1.527344 0.546875 1.828125 0.300781 C 2.34375 -0.132812 2.851562 -0.671875 3.230469 -1.230469 C 3.386719 -1.464844 3.5625 -1.683594 3.738281 -1.910156 Z M 0.710938 -2.664062 C 0.691406 -2.5625 0.660156 -2.449219 0.621094 -2.355469 C 0.589844 -2.28125 0.496094 -2.21875 0.484375 -2.167969 C 0.507812 -2.34375 0.640625 -2.519531 0.722656 -2.714844 C 0.722656 -2.695312 0.710938 -2.675781 0.710938 -2.664062 Z M 0.332031 -1.457031 C 0.289062 -1.382812 0.289062 -1.25 0.289062 -1.136719 C 0.277344 -1.261719 0.277344 -1.394531 0.320312 -1.519531 C 0.320312 -1.519531 0.351562 -1.476562 0.332031 -1.457031 Z M 1.074219 -1.703125 C 1.117188 -1.871094 1.167969 -2.035156 1.21875 -2.199219 Z M 0.351562 -1.652344 C 0.339844 -1.621094 0.320312 -1.578125 0.320312 -1.558594 C 0.320312 -1.609375 0.320312 -1.664062 0.371094 -1.683594 Z M 1.261719 -2.324219 C 1.25 -2.3125 1.25 -2.3125 1.25 -2.304688 C 1.25 -2.324219 1.25 -2.34375 1.261719 -2.363281 Z M 1.261719 -2.324219 " />
            </g>
        </g>
        <g style="fill:rgb(100%,100%,100%);fill-opacity:1;">
            <g transform="translate(43.922103, 18.394536)">
                <path style="stroke:none;" d="M 5.464844 -2.5 C 5.453125 -2.683594 5.316406 -2.632812 5.226562 -2.550781 C 5.171875 -2.5 4.503906 -1.753906 4.535156 -1.703125 C 4.554688 -1.703125 4.585938 -1.703125 4.605469 -1.722656 C 4.410156 -1.527344 4.101562 -1.34375 3.863281 -1.167969 C 3.625 -0.980469 3.355469 -0.640625 3.027344 -0.621094 C 2.996094 -0.621094 2.964844 -0.609375 2.921875 -0.621094 C 2.777344 -0.640625 2.425781 -1.269531 2.394531 -1.40625 C 2.40625 -1.300781 2.644531 -0.835938 2.707031 -0.734375 C 2.46875 -1 2.34375 -1.40625 2.28125 -1.765625 C 2.292969 -1.734375 2.3125 -1.703125 2.324219 -1.703125 C 2.355469 -1.714844 2.3125 -1.921875 2.3125 -1.929688 C 2.332031 -1.953125 2.488281 -1.992188 2.53125 -2.015625 C 2.757812 -2.105469 2.972656 -2.21875 3.191406 -2.34375 C 3.59375 -2.5625 3.996094 -2.820312 4.328125 -3.140625 C 4.6875 -3.5 5 -4.007812 4.523438 -4.417969 C 4.046875 -4.824219 3.375 -4.285156 3.015625 -3.964844 C 2.664062 -3.65625 2.363281 -3.292969 2.085938 -2.921875 C 1.960938 -2.738281 1.828125 -2.5625 1.714844 -2.375 C 1.640625 -2.273438 1.414062 -2.015625 1.433594 -1.890625 C 1.433594 -1.890625 1.632812 -2.128906 1.640625 -2.136719 C 1.570312 -2.035156 1.496094 -1.921875 1.433594 -1.808594 C 1.433594 -1.816406 1.269531 -1.589844 1.25 -1.550781 L 0.972656 -1.0625 C 1.085938 -1.550781 1.21875 -2.035156 1.363281 -2.519531 C 1.433594 -2.769531 1.496094 -2.914062 1.664062 -3.109375 C 1.808594 -3.285156 1.953125 -3.460938 2.085938 -3.636719 C 2.394531 -4.027344 2.675781 -4.449219 2.953125 -4.875 C 3.160156 -5.183594 3.316406 -5.585938 3.550781 -5.84375 C 3.839844 -6.1875 4.089844 -6.640625 4.234375 -7.074219 C 4.316406 -7.3125 4.285156 -7.507812 4.171875 -7.746094 C 3.957031 -8.167969 3.519531 -8.550781 3.046875 -8.332031 C 2.652344 -8.160156 2.375 -7.753906 2.167969 -7.394531 C 2.035156 -7.167969 1.910156 -6.929688 1.808594 -6.679688 L 1.601562 -6.246094 C 1.570312 -6.164062 1.539062 -6.03125 1.507812 -5.957031 C 1.507812 -5.949219 1.496094 -5.9375 1.496094 -5.9375 C 1.414062 -5.730469 1.351562 -5.535156 1.28125 -5.328125 C 1.269531 -5.339844 1.332031 -5.535156 1.332031 -5.535156 C 1.28125 -5.535156 1.117188 -5.039062 1.09375 -4.976562 C 1 -4.730469 0.917969 -4.480469 0.835938 -4.222656 C 0.679688 -3.757812 0.558594 -3.285156 0.464844 -2.796875 C 0.382812 -2.273438 0.226562 -1.753906 0.113281 -1.238281 C 0.0742188 -1.011719 0 -0.785156 0 -0.558594 C 0 -0.433594 0.0195312 -0.300781 0.09375 -0.195312 C 0.113281 -0.175781 0.289062 -0.03125 0.289062 -0.0429688 C 0.289062 -0.0429688 0.277344 -0.0507812 0.277344 -0.0625 C 0.332031 -0.0195312 0.433594 0.0117188 0.515625 0.0195312 C 0.445312 0.0195312 0.351562 0.0117188 0.332031 -0.0195312 C 0.402344 0.0820312 0.679688 0.0117188 0.703125 0.0117188 C 0.941406 -0.0429688 0.992188 -0.371094 1.117188 -0.558594 L 1.609375 -1.382812 C 1.652344 -1.167969 1.734375 -0.917969 1.839844 -0.734375 C 1.859375 -0.679688 2.160156 -0.269531 2.179688 -0.289062 C 2.179688 -0.300781 2.167969 -0.320312 2.167969 -0.332031 C 2.210938 -0.277344 2.25 -0.238281 2.304688 -0.207031 C 2.292969 -0.195312 2.261719 -0.238281 2.25 -0.21875 C 2.1875 -0.125 2.632812 0.03125 2.707031 0.03125 C 2.851562 0.0195312 2.972656 -0.0820312 3.109375 -0.132812 C 3.222656 -0.1875 3.335938 -0.226562 3.4375 -0.308594 C 3.5625 -0.414062 3.429688 -0.351562 3.511719 -0.414062 L 3.511719 -0.390625 C 3.542969 -0.433594 4.007812 -0.691406 4.027344 -0.710938 C 4.265625 -0.886719 4.449219 -1.125 4.65625 -1.34375 C 4.832031 -1.519531 4.976562 -1.714844 5.121094 -1.898438 C 5.277344 -2.074219 5.484375 -2.21875 5.464844 -2.488281 Z M 3.222656 -7.539062 C 3.324219 -7.683594 3.625 -8.042969 3.8125 -7.796875 C 3.996094 -7.550781 3.675781 -6.960938 3.5625 -6.722656 C 3.40625 -6.371094 3.210938 -6.03125 3.015625 -5.699219 L 2.738281 -5.246094 C 2.632812 -5.089844 2.5 -4.945312 2.4375 -4.792969 C 2.476562 -4.863281 2.5625 -4.957031 2.613281 -5.019531 L 2.839844 -5.378906 C 3.015625 -5.660156 3.179688 -5.9375 3.335938 -6.226562 C 3.417969 -6.363281 3.5 -6.515625 3.59375 -6.679688 C 3.492188 -6.464844 3.375 -6.257812 3.261719 -6.050781 C 2.808594 -5.226562 2.28125 -4.449219 1.714844 -3.707031 C 1.898438 -4.378906 2.097656 -5.050781 2.34375 -5.710938 C 2.582031 -6.332031 2.820312 -7 3.222656 -7.539062 Z M 2.1875 -2.21875 C 2.53125 -2.695312 2.882812 -3.160156 3.285156 -3.582031 C 3.375 -3.6875 3.894531 -4.273438 4.070312 -4.152344 C 4.234375 -4.027344 3.644531 -3.355469 3.5625 -3.261719 C 3.179688 -2.851562 2.714844 -2.425781 2.1875 -2.21875 Z M 2.25 -5.925781 C 2.375 -6.226562 2.488281 -6.535156 2.632812 -6.847656 C 2.644531 -6.886719 2.746094 -7.023438 2.796875 -7.113281 C 2.746094 -6.980469 2.59375 -6.753906 2.570312 -6.691406 C 2.40625 -6.269531 2.28125 -5.835938 2.136719 -5.402344 C 1.972656 -4.882812 1.808594 -4.390625 1.671875 -3.871094 L 1.695312 -3.957031 L 1.683594 -3.945312 C 1.683594 -3.957031 1.695312 -3.957031 1.695312 -3.964844 C 1.828125 -4.617188 1.992188 -5.308594 2.25 -5.925781 Z M 1.507812 -5.957031 L 1.496094 -5.949219 C 1.507812 -5.949219 1.507812 -5.957031 1.507812 -5.957031 Z M 1.496094 -5.9375 L 1.496094 -5.949219 Z M 1.496094 -5.9375 " />
            </g>
        </g>
        <g style="fill:rgb(100%,100%,100%);fill-opacity:1;">
            <g transform="translate(48.631121, 18.394536)">
                <path style="stroke:none;" d="M 4.128906 -2.632812 C 3.984375 -2.476562 3.894531 -2.21875 3.78125 -2.035156 C 3.605469 -1.734375 3.429688 -1.445312 3.242188 -1.15625 C 2.890625 -0.597656 2.539062 -0.03125 2.117188 0.476562 C 1.941406 0.691406 1.570312 1.21875 1.21875 1.175781 C 0.960938 1.136719 0.960938 0.691406 0.960938 0.496094 C 0.960938 0.332031 0.972656 0.164062 0.992188 0.0117188 C 1 -0.0820312 1.085938 -0.390625 1.03125 -0.476562 L 0.949219 -0.164062 C 0.960938 -0.289062 0.980469 -0.421875 1.011719 -0.546875 C 1 -0.566406 1.09375 -0.855469 1.117188 -0.949219 C 1.167969 -1.15625 1.21875 -1.363281 1.28125 -1.570312 C 1.332031 -1.777344 1.382812 -1.972656 1.445312 -2.167969 C 1.496094 -2.355469 1.570312 -2.449219 1.683594 -2.59375 C 2.148438 -3.171875 2.570312 -3.800781 2.964844 -4.429688 C 3.109375 -4.667969 3.203125 -4.875 3.375 -5.070312 C 3.636719 -5.339844 3.8125 -5.742188 3.976562 -6.070312 C 4.253906 -6.609375 4.625 -7.351562 4.566406 -7.984375 L 4.566406 -8.035156 L 4.554688 -8.042969 C 4.492188 -8.449219 4.121094 -8.921875 3.667969 -8.777344 C 3.429688 -8.707031 3.253906 -8.457031 3.109375 -8.28125 L 2.871094 -7.960938 C 2.820312 -7.898438 2.746094 -7.746094 2.695312 -7.664062 L 2.707031 -7.671875 L 2.375 -7.105469 L 2.457031 -7.28125 C 2.40625 -7.289062 2.179688 -6.847656 2.148438 -6.796875 C 2.035156 -6.597656 1.929688 -6.402344 1.839844 -6.207031 C 1.632812 -5.792969 1.425781 -5.371094 1.289062 -4.925781 C 1.144531 -4.480469 0.980469 -4.046875 0.824219 -3.605469 C 0.742188 -3.367188 0.660156 -3.117188 0.589844 -2.882812 C 0.527344 -2.683594 0.382812 -2.363281 0.414062 -2.160156 L 0.445312 -2.160156 C 0.414062 -2.085938 0.390625 -2.015625 0.371094 -1.941406 C 0.382812 -2.003906 0.382812 -2.074219 0.390625 -2.097656 C 0.339844 -2.023438 0.351562 -1.777344 0.339844 -1.753906 C 0.207031 -1.199219 0.0507812 -0.640625 0.0117188 -0.0625 C -0.0195312 0.484375 -0.0195312 1.207031 0.414062 1.609375 C 0.898438 2.054688 1.457031 1.753906 1.859375 1.375 C 2.332031 0.910156 2.738281 0.363281 3.109375 -0.175781 C 3.449219 -0.671875 3.71875 -1.199219 4.027344 -1.695312 C 4.152344 -1.898438 4.285156 -2.105469 4.347656 -2.332031 C 4.390625 -2.5 4.367188 -2.882812 4.128906 -2.632812 Z M 2.839844 -6.332031 C 3.046875 -6.824219 3.253906 -7.332031 3.542969 -7.796875 C 3.613281 -7.910156 4.078125 -8.53125 4.058594 -7.984375 L 4.058594 -7.972656 C 4.039062 -7.394531 3.667969 -6.785156 3.417969 -6.289062 L 2.984375 -5.484375 C 2.839844 -5.234375 2.59375 -4.925781 2.507812 -4.65625 C 2.570312 -4.824219 2.757812 -5.058594 2.851562 -5.214844 C 3.003906 -5.472656 3.140625 -5.730469 3.285156 -5.988281 C 3.519531 -6.445312 3.78125 -6.917969 3.957031 -7.414062 C 3.492188 -6.03125 2.621094 -4.738281 1.859375 -3.511719 C 2.160156 -4.417969 2.457031 -5.410156 2.839844 -6.332031 Z M 2.507812 -7.054688 C 2.613281 -7.25 2.796875 -7.414062 2.902344 -7.601562 C 2.683594 -7.167969 2.417969 -6.773438 2.1875 -6.363281 C 2.1875 -6.371094 2.1875 -6.390625 2.199219 -6.402344 C 2.292969 -6.628906 2.394531 -6.835938 2.507812 -7.054688 Z M 0.558594 -1.714844 C 0.546875 -1.695312 0.546875 -1.683594 0.546875 -1.683594 C 0.421875 -1.394531 0.414062 -1 0.351562 -0.691406 C 0.339844 -0.621094 0.320312 -0.558594 0.320312 -0.484375 L 0.320312 -0.515625 L 0.289062 -0.1875 C 0.308594 -0.558594 0.351562 -0.941406 0.421875 -1.300781 L 0.421875 -1.289062 C 0.453125 -1.527344 0.507812 -1.746094 0.546875 -1.746094 C 0.566406 -1.753906 0.566406 -1.722656 0.558594 -1.714844 Z M 0.558594 -1.714844 " />
            </g>
        </g>
        <g style="fill:rgb(100%,100%,100%);fill-opacity:1;">
            <g transform="translate(52.286806, 18.394536)">
                <path style="stroke:none;" d="M 3.957031 -2.550781 C 3.957031 -2.539062 3.957031 -2.539062 3.945312 -2.550781 L 3.945312 -2.5625 C 3.78125 -2.839844 3.5625 -2.457031 3.46875 -2.324219 C 3.292969 -2.085938 3.128906 -1.859375 2.941406 -1.640625 C 2.789062 -1.457031 2.621094 -1.269531 2.5 -1.074219 C 2.5 -1.054688 2.476562 -1 2.476562 -1 C 2.4375 -0.941406 2.375 -0.886719 2.324219 -0.824219 C 2.230469 -0.734375 2.136719 -0.628906 2.035156 -0.535156 C 1.878906 -0.390625 1.011719 0.421875 0.898438 -0.101562 C 0.835938 -0.363281 0.917969 -0.679688 0.972656 -0.929688 C 1 -1.0625 1.03125 -1.1875 1.054688 -1.320312 C 1.074219 -1.425781 1.042969 -1.527344 1.09375 -1.632812 C 1.125 -1.695312 1.136719 -1.683594 1.207031 -1.703125 L 1.382812 -1.765625 C 1.496094 -1.808594 1.609375 -1.847656 1.714844 -1.910156 C 1.871094 -2.003906 2.015625 -2.117188 2.148438 -2.230469 C 2.46875 -2.5 2.808594 -2.820312 2.941406 -3.222656 C 3.015625 -3.449219 3.027344 -3.695312 2.882812 -3.894531 C 2.746094 -4.070312 2.519531 -4.160156 2.3125 -4.203125 C 1.753906 -4.304688 1.332031 -3.984375 1.011719 -3.5625 C 0.621094 -3.078125 0.339844 -2.476562 0.207031 -1.871094 C 0.132812 -1.570312 0.09375 -1.269531 0.0429688 -0.960938 C -0.0117188 -0.652344 -0.0429688 -0.363281 0.125 -0.0742188 C 0.113281 -0.175781 0.09375 -0.269531 0.09375 -0.363281 C 0.09375 -0.414062 0.113281 -0.464844 0.113281 -0.507812 C 0.113281 -0.527344 0.09375 -0.589844 0.09375 -0.621094 C 0.09375 -0.710938 0.113281 -0.785156 0.132812 -0.878906 C 0.144531 -0.972656 0.132812 -1.0625 0.144531 -1.15625 C 0.15625 -1.261719 0.195312 -1.34375 0.238281 -1.433594 C 0.269531 -1.519531 0.277344 -1.589844 0.308594 -1.671875 C 0.339844 -1.746094 0.363281 -1.828125 0.390625 -1.910156 C 0.402344 -1.960938 0.453125 -2.023438 0.484375 -2.085938 C 0.453125 -1.992188 0.390625 -1.910156 0.371094 -1.828125 C 0.339844 -1.703125 0.363281 -1.570312 0.351562 -1.445312 C 0.332031 -1.3125 0.289062 -1.175781 0.269531 -1.03125 C 0.246094 -0.898438 0.1875 -0.773438 0.164062 -0.640625 C 0.144531 -0.515625 0.101562 -0.421875 0.113281 -0.300781 C 0.113281 -0.226562 0.125 -0.15625 0.132812 -0.09375 C 0.144531 -0.0117188 0.195312 0.0429688 0.246094 0.101562 C 0.421875 0.308594 0.660156 0.476562 0.929688 0.546875 C 1.117188 0.597656 1.28125 0.589844 1.457031 0.496094 C 1.703125 0.363281 1.921875 0.15625 2.105469 -0.0429688 C 2.28125 -0.238281 2.417969 -0.453125 2.570312 -0.660156 C 2.714844 -0.847656 2.890625 -1.023438 3.035156 -1.207031 L 3.59375 -1.929688 L 3.914062 -2.355469 C 3.964844 -2.417969 3.996094 -2.46875 3.957031 -2.550781 Z M 1.394531 -2.4375 C 1.40625 -2.457031 1.40625 -2.46875 1.40625 -2.46875 C 1.558594 -2.796875 1.671875 -3.148438 1.890625 -3.46875 L 2.074219 -3.71875 C 2.117188 -3.769531 2.1875 -3.863281 2.261719 -3.882812 C 2.417969 -3.914062 2.457031 -3.644531 2.449219 -3.542969 L 2.40625 -3.324219 C 2.394531 -3.261719 2.417969 -3.222656 2.40625 -3.171875 C 2.386719 -3.109375 2.332031 -3.078125 2.304688 -3.027344 L 2.128906 -2.796875 C 1.890625 -2.519531 1.589844 -2.28125 1.261719 -2.105469 C 1.3125 -2.21875 1.34375 -2.332031 1.394531 -2.4375 Z M 1.394531 -2.4375 " />
            </g>
        </g>
        <g style="fill:rgb(100%,100%,100%);fill-opacity:1;">
            <g transform="translate(55.498441, 18.394536)">
                <path style="stroke:none;" d="M 6.101562 -2.519531 L 6.101562 -2.53125 C 6.042969 -2.871094 5.578125 -2.304688 5.515625 -2.25 C 5.214844 -1.921875 4.9375 -1.558594 4.667969 -1.199219 C 4.398438 -0.824219 4.140625 -0.453125 3.863281 -0.0820312 C 3.726562 0.101562 3.59375 0.277344 3.4375 0.445312 C 3.386719 0.507812 3.261719 0.679688 3.171875 0.679688 C 2.808594 0.679688 3.085938 -0.773438 3.128906 -1 C 3.191406 -1.40625 3.222656 -1.941406 3.480469 -2.261719 C 3.542969 -2.34375 4.246094 -3.242188 4.246094 -3.242188 C 4.222656 -3.253906 4.140625 -3.148438 4.089844 -3.085938 L 4.535156 -3.6875 L 4.566406 -3.726562 L 4.574219 -3.726562 L 4.566406 -3.726562 L 4.648438 -3.839844 C 4.65625 -3.832031 4.648438 -3.8125 4.636719 -3.789062 L 4.730469 -3.894531 L 5 -4.246094 C 5.195312 -4.523438 5.378906 -4.824219 5.554688 -5.113281 C 5.835938 -5.585938 6.214844 -6.269531 6.011719 -6.847656 C 5.855469 -7.269531 5.289062 -7.351562 4.90625 -7.207031 C 4.625 -7.105469 4.390625 -6.886719 4.191406 -6.660156 C 4.089844 -6.527344 3.984375 -6.382812 3.894531 -6.226562 C 3.863281 -6.1875 3.726562 -5.855469 3.695312 -5.8125 L 3.707031 -5.8125 C 3.644531 -5.699219 3.582031 -5.585938 3.542969 -5.472656 C 3.5625 -5.554688 3.613281 -5.722656 3.65625 -5.753906 C 3.574219 -5.691406 3.5 -5.390625 3.480469 -5.359375 C 3.085938 -4.503906 2.746094 -3.636719 2.5 -2.726562 C 2.21875 -3.046875 1.777344 -3.59375 1.289062 -3.398438 C 0.886719 -3.230469 0.589844 -2.808594 0.382812 -2.4375 C 0.195312 -2.105469 0.144531 -1.765625 0.0117188 -1.445312 C -0.226562 -0.898438 -0.339844 0.226562 0.464844 0.390625 C 0.710938 0.445312 0.941406 0.289062 1.136719 0.15625 C 1.488281 -0.101562 1.816406 -0.402344 2.128906 -0.710938 C 2.074219 -0.164062 1.960938 0.660156 2.40625 1.09375 C 2.953125 1.652344 3.5 0.898438 3.832031 0.484375 C 4.253906 -0.0507812 4.585938 -0.652344 5.007812 -1.167969 C 5.214844 -1.414062 5.421875 -1.664062 5.636719 -1.890625 C 5.804688 -2.054688 6.132812 -2.261719 6.101562 -2.519531 Z M 2.304688 -1.839844 C 2.292969 -1.808594 2.292969 -1.785156 2.292969 -1.785156 C 2.25 -1.539062 2.25 -1.320312 2.074219 -1.144531 C 1.921875 -0.980469 1.753906 -0.824219 1.589844 -0.671875 C 1.433594 -0.527344 1.0625 -0.101562 0.824219 -0.125 C 0.535156 -0.15625 0.753906 -0.816406 0.898438 -1.21875 C 0.742188 -0.804688 0.496094 -0.132812 0.835938 -0.113281 C 0.929688 -0.101562 1.085938 -0.1875 1.21875 -0.300781 C 1.09375 -0.1875 0.886719 -0.03125 0.765625 -0.09375 C 0.527344 -0.195312 0.734375 -0.785156 0.773438 -0.949219 C 0.910156 -1.425781 1.105469 -1.878906 1.332031 -2.3125 C 1.445312 -2.53125 1.609375 -2.882812 1.828125 -2.902344 L 1.777344 -2.871094 C 1.785156 -2.882812 1.796875 -2.882812 1.808594 -2.882812 C 1.878906 -2.902344 1.953125 -2.851562 2.003906 -2.808594 C 2.136719 -2.714844 2.21875 -2.539062 2.3125 -2.40625 C 2.417969 -2.242188 2.34375 -2.066406 2.304688 -1.878906 Z M 3.964844 -4.222656 C 3.964844 -4.234375 3.964844 -4.253906 3.976562 -4.265625 L 3.976562 -4.273438 C 3.984375 -4.304688 3.996094 -4.316406 3.996094 -4.316406 L 3.996094 -4.328125 C 4.234375 -4.988281 4.492188 -5.648438 4.863281 -6.246094 C 4.957031 -6.402344 5.226562 -6.878906 5.464844 -6.742188 C 5.554688 -6.691406 5.578125 -6.558594 5.578125 -6.464844 C 5.617188 -5.84375 5.121094 -5.113281 4.8125 -4.617188 C 4.449219 -4.039062 4.046875 -3.46875 3.625 -2.941406 L 3.851562 -3.179688 L 4.058594 -3.4375 L 3.53125 -2.757812 L 3.460938 -2.664062 L 3.417969 -2.621094 C 3.429688 -2.683594 3.480469 -2.746094 3.53125 -2.820312 C 3.511719 -2.796875 3.492188 -2.777344 3.480469 -2.757812 C 3.613281 -3.203125 3.757812 -3.644531 3.914062 -4.089844 C 3.902344 -4.078125 3.914062 -4.101562 3.925781 -4.140625 L 3.957031 -4.191406 C 3.957031 -4.203125 3.957031 -4.214844 3.964844 -4.222656 Z M 3.097656 -3.375 C 3.078125 -3.324219 3.015625 -3.085938 2.984375 -3.058594 C 2.984375 -3.046875 2.972656 -3.035156 2.964844 -3.035156 C 3.046875 -3.140625 2.996094 -3.273438 3.035156 -3.398438 C 3.058594 -3.460938 3.160156 -3.574219 3.179688 -3.65625 C 3.179688 -3.574219 3.128906 -3.429688 3.097656 -3.375 Z M 1.457031 -0.515625 C 1.714844 -0.742188 1.960938 -0.980469 2.199219 -1.230469 C 2.179688 -1.09375 1.859375 -0.867188 1.746094 -0.765625 C 1.609375 -0.628906 1.457031 -0.496094 1.300781 -0.371094 L 1.289062 -0.371094 Z M 3.285156 -4.316406 C 3.242188 -4.191406 3.191406 -4.078125 3.128906 -3.964844 C 3.179688 -4.121094 3.210938 -4.273438 3.285156 -4.417969 C 3.347656 -4.535156 3.417969 -4.679688 3.46875 -4.8125 C 3.417969 -4.648438 3.335938 -4.472656 3.285156 -4.316406 Z M 3.957031 -4.191406 L 3.914062 -4.089844 C 3.914062 -4.101562 3.925781 -4.121094 3.925781 -4.140625 Z M 1.722656 -2.828125 C 1.683594 -2.796875 1.652344 -2.757812 1.640625 -2.757812 C 1.664062 -2.757812 1.695312 -2.796875 1.722656 -2.828125 Z M 2.015625 -2.851562 C 2.035156 -2.839844 2.054688 -2.828125 2.074219 -2.808594 Z M 4.058594 -3.035156 C 4.058594 -3.046875 4.070312 -3.058594 4.078125 -3.066406 C 4.070312 -3.046875 4.058594 -3.035156 4.058594 -3.035156 Z M 4.078125 -3.066406 L 4.089844 -3.085938 C 4.089844 -3.078125 4.078125 -3.066406 4.078125 -3.066406 Z M 4.078125 -3.066406 " />
            </g>
        </g>
        <g style="fill:rgb(0%,0%,0%);fill-opacity:1;">
            <g transform="translate(38.296352, 5.509006)">
                <path style="stroke:none;" d="" />
            </g>
        </g>
        <g clip-rule="nonzero" clip-path="url(#clip2)">
            <path style=" stroke:none;fill-rule:nonzero;fill:rgb(100%,100%,100%);fill-opacity:1;" d="M 26.871094 20.460938 C 27.019531 20.460938 27.019531 20.238281 26.871094 20.238281 C 26.726562 20.238281 26.726562 20.460938 26.871094 20.460938 Z M 29.769531 17.808594 C 29.917969 17.808594 29.917969 17.585938 29.769531 17.585938 C 29.625 17.585938 29.625 17.808594 29.769531 17.808594 Z M 9.363281 10.152344 C 9.511719 10.152344 9.511719 9.929688 9.363281 9.929688 C 9.21875 9.929688 9.21875 10.152344 9.363281 10.152344 Z M 9.304688 13.589844 C 9.449219 13.589844 9.449219 13.367188 9.304688 13.367188 C 9.15625 13.367188 9.15625 13.589844 9.304688 13.589844 Z M 10.84375 12.644531 C 10.824219 12.644531 10.804688 12.644531 10.78125 12.644531 C 10.636719 12.644531 10.636719 12.867188 10.78125 12.867188 C 10.804688 12.867188 10.824219 12.867188 10.84375 12.867188 C 10.992188 12.867188 10.992188 12.644531 10.84375 12.644531 Z M 9.003906 11.851562 C 9.003906 11.871094 9.003906 11.890625 9.003906 11.910156 C 9.003906 12.054688 9.234375 12.054688 9.234375 11.910156 C 9.234375 11.890625 9.234375 11.871094 9.234375 11.851562 C 9.234375 11.707031 9.003906 11.707031 9.003906 11.851562 Z M 11.523438 11.238281 C 11.667969 11.238281 11.667969 11.015625 11.523438 11.015625 C 11.375 11.015625 11.375 11.238281 11.523438 11.238281 Z M 10.414062 16.484375 C 10.558594 16.484375 10.558594 16.257812 10.414062 16.257812 C 10.265625 16.257812 10.265625 16.484375 10.414062 16.484375 Z M 13.238281 19.867188 C 13.238281 19.847656 13.238281 19.828125 13.238281 19.804688 C 13.238281 19.664062 13.011719 19.664062 13.011719 19.804688 C 13.011719 19.828125 13.011719 19.847656 13.011719 19.867188 C 13.011719 20.011719 13.238281 20.011719 13.238281 19.867188 Z M 15.46875 14.011719 C 15.613281 14.011719 15.617188 13.789062 15.46875 13.789062 C 15.320312 13.789062 15.320312 14.011719 15.46875 14.011719 Z M 18.796875 15.878906 C 18.945312 15.878906 18.945312 15.65625 18.796875 15.65625 C 18.652344 15.65625 18.652344 15.878906 18.796875 15.878906 Z M 16.332031 21.546875 C 16.476562 21.546875 16.476562 21.324219 16.332031 21.324219 C 16.183594 21.324219 16.183594 21.546875 16.332031 21.546875 Z M 28.476562 18.710938 C 28.621094 18.710938 28.621094 18.488281 28.476562 18.488281 C 28.328125 18.488281 28.328125 18.710938 28.476562 18.710938 Z M 28.351562 16.363281 C 28.5 16.363281 28.5 16.140625 28.351562 16.140625 C 28.207031 16.140625 28.207031 16.363281 28.351562 16.363281 Z M 26.316406 18.171875 C 26.464844 18.171875 26.464844 17.945312 26.316406 17.945312 C 26.171875 17.945312 26.171875 18.171875 26.316406 18.171875 Z M 21.015625 20.398438 C 21.164062 20.398438 21.164062 20.175781 21.015625 20.175781 C 20.871094 20.175781 20.871094 20.398438 21.015625 20.398438 Z M 12.648438 12.574219 C 12.648438 12.554688 12.648438 12.535156 12.648438 12.511719 C 12.648438 12.410156 12.554688 12.3125 12.449219 12.320312 C 12.339844 12.324219 12.246094 12.402344 12.246094 12.511719 C 12.246094 12.535156 12.246094 12.554688 12.246094 12.574219 C 12.246094 12.675781 12.339844 12.773438 12.449219 12.769531 C 12.554688 12.765625 12.648438 12.683594 12.648438 12.574219 Z M 24.714844 20 C 24.972656 20 24.972656 19.613281 24.714844 19.613281 C 24.457031 19.613281 24.457031 20 24.714844 20 Z M 23.484375 17.289062 C 23.738281 17.289062 23.738281 16.898438 23.484375 16.898438 C 23.226562 16.898438 23.226562 17.289062 23.484375 17.289062 Z M 22.066406 19.097656 C 22.320312 19.097656 22.320312 18.707031 22.066406 18.707031 C 21.808594 18.707031 21.808594 19.097656 22.066406 19.097656 Z M 18.921875 19.882812 C 19.175781 19.882812 19.179688 19.492188 18.921875 19.492188 C 18.664062 19.492188 18.664062 19.882812 18.921875 19.882812 Z M 21.324219 16.566406 C 21.582031 16.566406 21.582031 16.175781 21.324219 16.175781 C 21.066406 16.175781 21.066406 16.566406 21.324219 16.566406 Z M 17.441406 17.46875 C 17.699219 17.46875 17.699219 17.078125 17.441406 17.078125 C 17.183594 17.078125 17.183594 17.46875 17.441406 17.46875 Z M 11.339844 14.9375 C 11.59375 14.9375 11.59375 14.550781 11.339844 14.550781 C 11.082031 14.550781 11.082031 14.9375 11.339844 14.9375 Z M 15.222656 16.988281 C 15.476562 16.988281 15.480469 16.597656 15.222656 16.597656 C 14.964844 16.597656 14.964844 16.988281 15.222656 16.988281 Z M 13.617188 13.945312 C 13.597656 13.945312 13.578125 13.945312 13.558594 13.945312 C 13.453125 13.945312 13.351562 14.035156 13.359375 14.140625 C 13.363281 14.246094 13.445312 14.335938 13.558594 14.335938 C 13.578125 14.335938 13.597656 14.335938 13.617188 14.335938 C 13.722656 14.335938 13.824219 14.246094 13.820312 14.140625 C 13.8125 14.035156 13.730469 13.945312 13.617188 13.945312 Z M 12.613281 17.714844 C 12.636719 17.734375 12.65625 17.753906 12.675781 17.773438 C 12.75 17.847656 12.886719 17.851562 12.957031 17.773438 C 13.03125 17.695312 13.039062 17.574219 12.957031 17.5 C 12.9375 17.480469 12.917969 17.457031 12.898438 17.4375 C 12.824219 17.367188 12.6875 17.359375 12.613281 17.4375 C 12.542969 17.515625 12.535156 17.636719 12.613281 17.714844 Z M 19.535156 18.035156 C 19.902344 18.035156 19.902344 17.480469 19.535156 17.480469 C 19.171875 17.480469 19.167969 18.035156 19.535156 18.035156 Z M 16.269531 19.0625 C 16.636719 19.0625 16.636719 18.503906 16.269531 18.503906 C 15.902344 18.503906 15.902344 19.0625 16.269531 19.0625 Z M 13.558594 16.046875 C 13.925781 16.046875 13.925781 15.488281 13.558594 15.488281 C 13.191406 15.488281 13.191406 16.046875 13.558594 16.046875 Z M 16.332031 15.746094 C 16.699219 15.746094 16.699219 15.1875 16.332031 15.1875 C 15.964844 15.1875 15.964844 15.746094 16.332031 15.746094 Z M 48.355469 20.460938 C 48.5 20.460938 48.503906 20.238281 48.355469 20.238281 C 48.207031 20.238281 48.207031 20.460938 48.355469 20.460938 Z M 45.457031 17.808594 C 45.605469 17.808594 45.605469 17.585938 45.457031 17.585938 C 45.3125 17.585938 45.3125 17.808594 45.457031 17.808594 Z M 65.863281 10.152344 C 66.007812 10.152344 66.007812 9.929688 65.863281 9.929688 C 65.714844 9.929688 65.714844 10.152344 65.863281 10.152344 Z M 65.925781 13.589844 C 66.070312 13.589844 66.070312 13.367188 65.925781 13.367188 C 65.777344 13.367188 65.777344 13.589844 65.925781 13.589844 Z M 64.382812 12.867188 C 64.402344 12.867188 64.425781 12.867188 64.445312 12.867188 C 64.589844 12.867188 64.589844 12.644531 64.445312 12.644531 C 64.425781 12.644531 64.402344 12.644531 64.382812 12.644531 C 64.238281 12.644531 64.234375 12.867188 64.382812 12.867188 Z M 65.996094 11.851562 C 65.996094 11.871094 65.996094 11.890625 65.996094 11.910156 C 65.996094 12.054688 66.222656 12.054688 66.222656 11.910156 C 66.222656 11.890625 66.222656 11.871094 66.222656 11.851562 C 66.222656 11.707031 65.996094 11.707031 65.996094 11.851562 Z M 63.703125 11.238281 C 63.851562 11.238281 63.851562 11.015625 63.703125 11.015625 C 63.558594 11.015625 63.558594 11.238281 63.703125 11.238281 Z M 64.816406 16.484375 C 64.960938 16.484375 64.960938 16.257812 64.816406 16.257812 C 64.667969 16.257812 64.667969 16.484375 64.816406 16.484375 Z M 62.214844 19.867188 C 62.214844 19.847656 62.214844 19.828125 62.214844 19.804688 C 62.214844 19.664062 61.988281 19.664062 61.988281 19.804688 C 61.988281 19.828125 61.988281 19.847656 61.988281 19.867188 C 61.988281 20.011719 62.214844 20.011719 62.214844 19.867188 Z M 59.761719 14.011719 C 59.90625 14.011719 59.90625 13.789062 59.761719 13.789062 C 59.613281 13.789062 59.613281 14.011719 59.761719 14.011719 Z M 56.429688 15.878906 C 56.578125 15.878906 56.578125 15.65625 56.429688 15.65625 C 56.285156 15.65625 56.285156 15.878906 56.429688 15.878906 Z M 58.898438 21.546875 C 59.042969 21.546875 59.042969 21.324219 58.898438 21.324219 C 58.75 21.324219 58.75 21.546875 58.898438 21.546875 Z M 46.753906 18.710938 C 46.898438 18.710938 46.898438 18.488281 46.753906 18.488281 C 46.605469 18.488281 46.605469 18.710938 46.753906 18.710938 Z M 46.875 16.363281 C 47.023438 16.363281 47.023438 16.140625 46.875 16.140625 C 46.730469 16.140625 46.730469 16.363281 46.875 16.363281 Z M 48.910156 18.171875 C 49.058594 18.171875 49.058594 17.945312 48.910156 17.945312 C 48.761719 17.945312 48.761719 18.171875 48.910156 18.171875 Z M 54.210938 20.398438 C 54.359375 20.398438 54.359375 20.175781 54.210938 20.175781 C 54.066406 20.175781 54.066406 20.398438 54.210938 20.398438 Z M 62.980469 12.574219 C 62.980469 12.554688 62.980469 12.535156 62.980469 12.511719 C 62.980469 12.410156 62.886719 12.3125 62.78125 12.320312 C 62.671875 12.324219 62.582031 12.402344 62.582031 12.511719 C 62.582031 12.535156 62.582031 12.554688 62.582031 12.574219 C 62.582031 12.675781 62.671875 12.773438 62.78125 12.769531 C 62.886719 12.765625 62.980469 12.683594 62.980469 12.574219 Z M 50.511719 20 C 50.769531 20 50.769531 19.613281 50.511719 19.613281 C 50.257812 19.613281 50.253906 20 50.511719 20 Z M 51.746094 17.289062 C 52.003906 17.289062 52.003906 16.898438 51.746094 16.898438 C 51.488281 16.898438 51.488281 17.289062 51.746094 17.289062 Z M 53.164062 19.097656 C 53.421875 19.097656 53.421875 18.707031 53.164062 18.707031 C 52.90625 18.707031 52.90625 19.097656 53.164062 19.097656 Z M 56.308594 19.882812 C 56.5625 19.882812 56.566406 19.492188 56.308594 19.492188 C 56.050781 19.492188 56.050781 19.882812 56.308594 19.882812 Z M 53.902344 16.566406 C 54.160156 16.566406 54.160156 16.175781 53.902344 16.175781 C 53.644531 16.175781 53.644531 16.566406 53.902344 16.566406 Z M 57.785156 17.46875 C 58.042969 17.46875 58.042969 17.078125 57.785156 17.078125 C 57.53125 17.078125 57.53125 17.46875 57.785156 17.46875 Z M 63.890625 14.9375 C 64.148438 14.9375 64.148438 14.550781 63.890625 14.550781 C 63.632812 14.550781 63.632812 14.9375 63.890625 14.9375 Z M 60.007812 16.988281 C 60.261719 16.988281 60.261719 16.597656 60.007812 16.597656 C 59.75 16.597656 59.75 16.988281 60.007812 16.988281 Z M 61.609375 14.335938 C 61.628906 14.335938 61.652344 14.335938 61.671875 14.335938 C 61.773438 14.335938 61.875 14.246094 61.871094 14.140625 C 61.867188 14.035156 61.78125 13.945312 61.671875 13.945312 C 61.652344 13.945312 61.628906 13.945312 61.609375 13.945312 C 61.503906 13.945312 61.40625 14.035156 61.410156 14.140625 C 61.414062 14.246094 61.496094 14.335938 61.609375 14.335938 Z M 62.332031 17.4375 C 62.308594 17.457031 62.289062 17.480469 62.269531 17.5 C 62.195312 17.570312 62.191406 17.703125 62.269531 17.773438 C 62.347656 17.847656 62.472656 17.851562 62.550781 17.773438 C 62.570312 17.753906 62.59375 17.734375 62.613281 17.714844 C 62.6875 17.640625 62.691406 17.511719 62.613281 17.4375 C 62.535156 17.367188 62.410156 17.363281 62.332031 17.4375 Z M 55.691406 18.035156 C 56.058594 18.035156 56.058594 17.480469 55.691406 17.480469 C 55.324219 17.480469 55.324219 18.035156 55.691406 18.035156 Z M 58.957031 19.0625 C 59.324219 19.0625 59.324219 18.503906 58.957031 18.503906 C 58.59375 18.503906 58.589844 19.0625 58.957031 19.0625 Z M 61.671875 16.046875 C 62.039062 16.046875 62.039062 15.488281 61.671875 15.488281 C 61.304688 15.488281 61.304688 16.046875 61.671875 16.046875 Z M 58.898438 15.746094 C 58.53125 15.746094 58.53125 15.1875 58.898438 15.1875 C 59.265625 15.1875 59.261719 15.746094 58.898438 15.746094 " />
        </g>
        <g style="fill:rgb(0%,0%,0%);fill-opacity:1;">
            <g transform="translate(37.499629, 22.90459)">
                <path style="stroke:none;" d="" />
            </g>
        </g>
    </g>
</svg>